<?xml version="1.0" standalone="no"?>
<!DOCTYPE svg PUBLIC "-//W3C//DTD SVG 20010904//EN"
 "http://www.w3.org/TR/2001/REC-SVG-20010904/DTD/svg10.dtd">
<svg version="1.0" xmlns="http://www.w3.org/2000/svg"
 width="800.000000pt" height="800.000000pt" viewBox="0 0 800.000000 800.000000"
 preserveAspectRatio="xMidYMid meet">
<metadata>
Created by potrace 1.11, written by Peter Selinger 2001-2013
</metadata>
<g transform="translate(0.000000,800.000000) scale(0.100000,-0.100000)"
fill="#000000" stroke="none">
<path d="M3815 7600 c-95 -39 -121 -74 -220 -305 -43 -99 -95 -217 -117 -263
-21 -46 -38 -86 -38 -90 0 -4 -11 -28 -25 -53 -13 -26 -21 -49 -18 -53 4 -3 2
-6 -4 -6 -6 0 -14 -10 -18 -22 -4 -13 -8 -26 -10 -30 -6 -19 -7 -23 -6 -30 0
-5 -4 -8 -9 -8 -6 0 -10 -5 -10 -11 0 -11 -4 -21 -114 -257 -42 -90 -76 -165
-76 -166 0 -3 -95 -205 -156 -332 -19 -38 -34 -76 -34 -82 0 -7 -4 -12 -9 -12
-5 0 -12 -10 -16 -22 -10 -31 -8 -27 -34 -83 -37 -81 -83 -176 -194 -405 -57
-118 -130 -269 -162 -335 -32 -66 -139 -284 -238 -485 -99 -201 -181 -367
-182 -370 0 -3 -14 -30 -30 -60 -16 -30 -29 -57 -30 -60 0 -3 -5 -12 -10 -20
-23 -37 -54 -100 -48 -100 3 0 1 -6 -5 -12 -5 -7 -60 -112 -122 -233 -62 -121
-131 -254 -153 -295 -22 -41 -56 -106 -75 -145 -20 -38 -41 -73 -46 -77 -6 -4
-7 -8 -2 -8 5 0 4 -6 -2 -12 -5 -7 -38 -68 -73 -136 -35 -68 -69 -131 -74
-140 -6 -9 -37 -66 -69 -127 -54 -100 -158 -288 -216 -390 -13 -22 -38 -68
-57 -103 -32 -61 -64 -116 -91 -157 -6 -11 -15 -27 -19 -35 -4 -8 -45 -78 -91
-155 -46 -77 -92 -153 -102 -170 -51 -88 -124 -200 -131 -203 -5 -2 -9 -8 -9
-13 0 -9 -75 -133 -95 -156 -30 -36 -35 -43 -35 -48 0 -9 -148 -211 -175 -240
-11 -12 -40 -44 -66 -71 -25 -27 -44 -55 -43 -61 1 -7 2 -17 3 -23 2 -18 72
-89 125 -127 28 -21 53 -40 56 -43 14 -17 131 -89 170 -104 25 -10 56 -23 70
-29 14 -6 28 -11 33 -12 4 -2 9 -4 12 -5 3 -1 8 -3 13 -4 4 -1 33 -10 66 -20
32 -9 73 -19 91 -20 18 -2 38 -6 43 -10 6 -3 13 -2 17 4 4 6 10 8 14 6 4 -3
21 8 37 25 49 52 118 83 229 104 11 2 31 6 45 9 14 4 41 8 60 11 19 3 46 7 60
9 40 8 101 17 150 21 25 3 65 7 89 10 24 3 67 8 95 10 104 9 192 16 236 20 25
3 90 7 145 10 55 3 132 7 170 10 106 7 428 20 725 30 102 3 228 8 280 10 498
19 1648 26 1990 12 368 -16 543 -24 640 -32 36 -3 94 -7 130 -10 57 -4 97 -7
260 -20 126 -10 190 -16 225 -20 45 -5 143 -15 195 -20 50 -5 129 -15 170 -21
19 -3 52 -6 72 -8 20 -2 54 -7 75 -10 21 -4 54 -9 73 -11 19 -2 49 -7 65 -10
66 -11 81 -12 110 -2 42 14 118 70 163 119 20 23 42 46 47 52 19 21 82 121
107 171 71 141 117 246 123 275 2 11 7 24 10 30 14 22 25 140 13 140 -4 0 -8
4 -8 9 0 4 -26 35 -59 67 -32 32 -95 106 -140 164 -46 58 -88 112 -94 120 -7
8 -23 31 -37 50 -13 19 -27 37 -30 40 -9 7 -366 512 -395 559 -30 48 -72 108
-87 125 -10 11 -18 23 -18 28 0 4 -27 46 -60 93 -33 47 -60 89 -60 93 0 4 -14
23 -30 42 -16 19 -30 40 -30 46 0 6 -9 19 -20 29 -11 10 -20 22 -20 26 0 4
-26 47 -59 96 -70 106 -281 433 -316 491 -21 35 -114 181 -168 264 -32 48 -57
90 -57 94 0 3 -13 24 -29 47 -16 23 -53 83 -82 132 -29 50 -56 92 -61 93 -4 2
-8 8 -8 13 0 6 -18 37 -40 70 -22 33 -40 61 -40 63 0 1 -45 76 -99 167 -55 90
-137 229 -183 308 -46 80 -98 170 -115 200 -18 31 -36 62 -40 70 -3 8 -35 64
-70 124 -35 60 -63 112 -63 114 0 3 -9 18 -21 34 -11 16 -17 29 -12 29 4 0 3
4 -3 8 -6 4 -41 66 -79 137 -37 72 -80 153 -95 180 -94 173 -327 631 -408 805
-27 58 -65 139 -85 180 -19 41 -46 100 -60 130 -14 30 -39 87 -57 125 -18 39
-57 129 -87 200 -30 72 -62 146 -70 165 -21 50 -29 70 -43 110 -22 65 -35 83
-85 120 -102 75 -226 98 -320 60z m197 -1327 c37 -39 116 -169 185 -304 32
-63 60 -116 63 -119 3 -3 15 -25 27 -50 24 -48 139 -266 205 -390 182 -340
275 -511 295 -542 12 -21 23 -39 23 -42 0 -2 30 -55 66 -117 36 -63 82 -143
102 -179 19 -36 49 -85 66 -110 17 -25 29 -45 26 -45 -2 0 3 -11 12 -25 13
-21 45 -77 163 -278 6 -9 37 -62 69 -117 32 -55 71 -119 87 -142 16 -23 29
-44 29 -48 0 -3 13 -25 28 -48 15 -23 34 -55 42 -72 8 -16 17 -32 20 -35 3 -3
12 -18 20 -35 8 -16 19 -34 23 -40 13 -17 347 -576 347 -581 0 -3 11 -20 24
-37 13 -18 37 -56 52 -85 16 -29 34 -61 39 -70 6 -9 68 -113 138 -231 71 -117
136 -226 145 -241 117 -197 142 -241 142 -250 0 -5 5 -10 10 -10 6 0 10 -5 10
-10 0 -6 12 -29 27 -53 15 -23 33 -51 39 -62 6 -11 63 -108 126 -215 214 -363
208 -353 186 -345 -7 2 -45 6 -84 10 -39 3 -80 7 -90 9 -11 2 -59 7 -109 10
-49 4 -101 9 -115 11 -14 2 -56 7 -95 10 -38 3 -92 8 -120 10 -48 5 -102 9
-252 20 -95 7 -209 15 -268 20 -27 2 -93 7 -145 10 -52 3 -122 8 -155 10 -54
4 -125 8 -385 20 -680 34 -1702 34 -2345 0 -60 -4 -148 -8 -195 -10 -156 -6
-304 -15 -350 -20 -25 -2 -88 -7 -140 -11 -52 -3 -111 -7 -130 -9 -19 -2 -80
-6 -134 -10 -55 -3 -113 -8 -130 -10 -17 -2 -71 -6 -119 -10 l-88 -7 17 34 c9
18 36 67 59 108 23 41 65 118 92 170 27 52 94 176 148 275 213 393 205 377
205 392 0 6 4 13 8 15 5 2 42 68 82 148 41 80 80 152 88 162 7 9 15 22 16 30
2 13 14 36 71 143 98 182 296 570 297 582 0 4 8 19 17 33 21 30 405 797 414
825 3 11 13 31 21 45 8 14 24 43 34 65 10 22 23 49 29 60 6 11 33 67 61 125
96 201 190 396 233 485 24 50 43 92 44 95 0 6 32 77 44 100 4 8 13 24 19 35
15 28 152 317 152 321 0 5 48 102 170 342 50 100 96 182 102 182 5 0 6 5 3 10
-3 6 -2 10 4 10 5 0 13 10 16 22 9 28 64 88 90 98 24 9 41 1 77 -37z"/>
</g>
</svg>
