<?xml version="1.0" standalone="no"?>
<!DOCTYPE svg PUBLIC "-//W3C//DTD SVG 20010904//EN"
 "http://www.w3.org/TR/2001/REC-SVG-20010904/DTD/svg10.dtd">
<svg version="1.0" xmlns="http://www.w3.org/2000/svg"
 width="306.000000pt" height="306.000000pt" viewBox="0 0 306.000000 306.000000"
 preserveAspectRatio="xMidYMid meet">
<metadata>
Created by potrace 1.11, written by Peter Selinger 2001-2013
</metadata>
<g transform="translate(0.000000,306.000000) scale(0.100000,-0.100000)"
fill="#000000" stroke="none">
<path d="M0 1530 l0 -1530 1530 0 1530 0 0 1530 0 1530 -1530 0 -1530 0 0
-1530z m1624 750 c28 -28 29 -33 36 -152 4 -68 12 -133 18 -145 16 -29 15 -79
-3 -128 -10 -30 -14 -93 -15 -247 0 -213 -5 -245 -42 -285 -33 -35 -98 -32
-140 6 l-33 29 -5 244 c-4 167 -9 250 -18 265 -15 27 -16 88 0 116 6 12 14 77
18 145 6 116 8 124 35 152 45 47 100 47 149 0z m-325 -254 c53 -28 74 -86 50
-138 -5 -13 -33 -39 -60 -58 -110 -75 -193 -196 -220 -321 -17 -78 -6 -202 24
-275 110 -270 419 -389 675 -260 163 82 258 230 269 417 9 149 -44 280 -155
377 -126 111 -142 129 -142 156 0 60 55 116 112 116 13 0 46 -13 74 -29 118
-68 230 -204 285 -345 133 -345 -22 -733 -356 -892 -105 -50 -184 -68 -305
-68 -125 0 -202 18 -316 74 -142 70 -246 174 -319 320 -54 110 -69 180 -69
320 0 114 2 132 31 213 17 48 46 113 64 144 70 116 241 263 307 263 13 0 36
-7 51 -14z"/>
</g>
</svg>
