<?xml version="1.0" standalone="no"?>
<!DOCTYPE svg PUBLIC "-//W3C//DTD SVG 20010904//EN"
 "http://www.w3.org/TR/2001/REC-SVG-20010904/DTD/svg10.dtd">
<svg version="1.0" xmlns="http://www.w3.org/2000/svg"
 width="818.000000pt" height="818.000000pt" viewBox="0 0 818.000000 818.000000"
 preserveAspectRatio="xMidYMid meet">
<metadata>
Created by potrace 1.11, written by Peter Selinger 2001-2013
</metadata>
<g transform="translate(0.000000,818.000000) scale(0.100000,-0.100000)"
fill="#000000" stroke="none">
<path d="M3921 7779 c-48 -14 -106 -53 -135 -92 -14 -18 -43 -73 -65 -123 -21
-49 -71 -163 -111 -254 -75 -170 -272 -608 -333 -740 -19 -41 -49 -106 -67
-145 -79 -170 -103 -221 -190 -405 -51 -107 -109 -231 -130 -275 -91 -195
-238 -498 -465 -960 -81 -165 -151 -309 -156 -320 -11 -25 -474 -935 -527
-1035 -22 -41 -59 -113 -83 -160 -24 -47 -64 -123 -89 -170 -26 -47 -66 -121
-89 -165 -72 -133 -172 -317 -197 -362 -13 -24 -36 -64 -50 -90 -389 -701
-731 -1236 -918 -1438 -31 -33 -56 -68 -56 -79 0 -30 127 -148 240 -222 133
-88 307 -155 442 -171 43 -5 49 -3 90 35 23 21 58 47 75 56 54 27 251 70 418
91 28 3 61 8 75 10 14 2 57 6 95 10 39 3 84 8 100 10 17 2 68 7 115 10 47 4
105 8 130 10 25 2 95 6 155 10 61 3 139 8 175 10 36 2 130 7 210 10 80 3 190
8 245 10 146 7 527 19 1005 31 369 10 1317 10 1565 0 310 -12 513 -22 635 -31
30 -2 93 -7 140 -10 87 -5 162 -11 260 -20 30 -3 89 -7 130 -10 41 -3 86 -8
100 -10 14 -3 53 -7 85 -9 33 -3 80 -7 105 -10 25 -3 88 -10 140 -16 138 -16
173 -21 190 -25 8 -2 42 -6 75 -10 33 -3 76 -10 95 -14 67 -14 115 -7 167 27
61 39 147 128 200 207 77 113 191 366 213 468 14 69 6 104 -34 142 -87 86
-283 334 -465 590 -23 33 -63 89 -88 125 -26 36 -129 187 -230 335 -101 149
-189 278 -195 287 -7 10 -62 94 -123 188 -158 244 -186 288 -319 497 -65 104
-134 211 -151 238 -36 55 -71 112 -289 467 -82 134 -159 259 -171 278 -121
188 -504 863 -735 1295 -71 133 -382 753 -437 870 -112 240 -176 381 -228 500
-7 17 -22 50 -32 75 -11 25 -48 115 -82 200 -51 127 -69 161 -100 190 -90 83
-224 119 -330 89z m164 -1350 c52 -46 122 -163 285 -474 35 -66 80 -151 100
-190 20 -38 66 -124 100 -190 78 -149 287 -534 345 -635 23 -41 82 -145 130
-230 108 -189 216 -375 392 -668 73 -123 133 -228 133 -233 0 -5 5 -9 10 -9 6
0 10 -4 10 -10 0 -5 32 -61 70 -125 39 -64 79 -130 89 -148 10 -18 58 -99 108
-182 206 -344 690 -1157 769 -1292 35 -60 169 -285 191 -322 12 -20 28 -47 36
-61 7 -14 46 -80 85 -148 67 -114 83 -150 65 -139 -5 3 -39 8 -78 11 -38 4
-83 8 -100 10 -30 4 -121 13 -230 22 -33 3 -76 7 -95 9 -19 2 -69 7 -110 10
-41 3 -100 7 -130 10 -30 3 -89 7 -130 10 -41 4 -95 8 -120 10 -25 2 -90 6
-145 10 -55 3 -120 8 -145 10 -25 2 -94 7 -155 10 -60 4 -130 8 -155 10 -25 2
-126 7 -225 11 -99 4 -205 8 -235 9 -599 27 -1671 23 -2265 -10 -60 -3 -150
-8 -200 -10 -177 -9 -460 -28 -615 -41 -25 -2 -81 -6 -125 -9 -44 -3 -98 -8
-120 -10 -22 -2 -75 -7 -118 -11 l-79 -6 18 33 c9 19 38 72 64 119 26 47 64
117 85 155 21 39 50 93 65 120 15 28 44 82 65 120 21 39 50 93 65 120 15 28
53 100 85 160 32 61 72 137 90 170 18 33 58 110 90 170 32 61 79 151 105 200
49 92 144 276 313 606 122 237 453 899 546 1091 39 81 104 216 145 300 82 170
174 362 216 453 15 33 58 123 94 199 37 77 90 190 119 250 102 217 266 542
310 615 48 80 111 151 133 151 7 0 29 -14 49 -31z"/>
</g>
</svg>
